{
  "accessors": [
    {
      "bufferView": 2,
      "componentType": 5126,
      "count": 365,
      "max": [
        11.47730827331543,
        0.6966589093208313,
        1.778733730316162
      ],
      "min": [
        6.789200305938721,
        -0.21499612927436829,
        -1.1536781787872314
      ],
      "type": "VEC3"
    },
    {
      "bufferView": 2,
      "byteOffset": 4380,
      "componentType": 5126,
      "count": 365,
      "max": [
        1.0,
        1.0,
        1.0
      ],
      "min": [
        -1.0,
        -1.0,
        -1.0
      ],
      "type": "VEC3"
    },
    {
      "bufferView": 1,
      "componentType": 5126,
      "count": 365,
      "max": [
        0.9292044639587402,
        0.9896059632301331
      ],
      "min": [
        0.022107839584350586,
        0.3772520422935486
      ],
      "type": "VEC2"
    },
    {
      "bufferView": 0,
      "componentType": 5125,
      "count": 780,
      "type": "SCALAR"
    },
    {
      "bufferView": 2,
      "byteOffset": 8760,
      "componentType": 5126,
      "count": 282,
      "max": [
        10.922700881958008,
        0.827373206615448,
        2.3606979846954346
      ],
      "min": [
        8.304367065429688,
        -0.33420810103416443,
        -0.20582371950149536
      ],
      "type": "VEC3"
    },
    {
      "bufferView": 2,
      "byteOffset": 12144,
      "componentType": 5126,
      "count": 282,
      "max": [
        0.9763476252555847,
        0.998932957649231,
        0.9867182970046997
      ],
      "min": [
        -0.9998911023139954,
        -0.998932957649231,
        -0.9978414177894592
      ],
      "type": "VEC3"
    },
    {
      "bufferView": 1,
      "byteOffset": 2920,
      "componentType": 5126,
      "count": 282,
      "max": [
        0.9782838821411133,
        0.39824339747428894
      ],
      "min": [
        0.5969253778457642,
        0.02032378688454628
      ],
      "type": "VEC2"
    },
    {
      "bufferView": 0,
      "byteOffset": 3120,
      "componentType": 5125,
      "count": 744,
      "type": "SCALAR"
    },
    {
      "bufferView": 2,
      "byteOffset": 15528,
      "componentType": 5126,
      "count": 294,
      "max": [
        11.439786911010742,
        0.43162405490875244,
        -0.0023941397666931152
      ],
      "min": [
        6.454554080963135,
        0.051521748304367065,
        -10.042106628417969
      ],
      "type": "VEC3"
    },
    {
      "bufferView": 2,
      "byteOffset": 19056,
      "componentType": 5126,
      "count": 294,
      "max": [
        0.5700908303260803,
        1.0,
        1.0
      ],
      "min": [
        -1.0,
        -1.0,
        -0.926159143447876
      ],
      "type": "VEC3"
    },
    {
      "bufferView": 1,
      "byteOffset": 5176,
      "componentType": 5126,
      "count": 294,
      "max": [
        0.9810613393783569,
        0.988303005695343
      ],
      "min": [
        0.006729006767272949,
        0.02245408296585083
      ],
      "type": "VEC2"
    },
    {
      "bufferView": 0,
      "byteOffset": 6096,
      "componentType": 5125,
      "count": 618,
      "type": "SCALAR"
    },
    {
      "bufferView": 2,
      "byteOffset": 22584,
      "componentType": 5126,
      "count": 598,
      "max": [
        9.6376314163208,
        0.7466728091239929,
        4.999322891235352
      ],
      "min": [
        8.657833099365234,
        -0.22490710020065308,
        1.790517807006836
      ],
      "type": "VEC3"
    },
    {
      "bufferView": 2,
      "byteOffset": 29760,
      "componentType": 5126,
      "count": 598,
      "max": [
        1.0,
        0.9999778866767883,
        0.7953845858573914
      ],
      "min": [
        -1.0,
        -0.9999778270721436,
        -0.95758056640625
      ],
      "type": "VEC3"
    },
    {
      "bufferView": 1,
      "byteOffset": 7528,
      "componentType": 5126,
      "count": 598,
      "max": [
        0.9214444160461426,
        0.7382588386535645
      ],
      "min": [
        0.47200679779052734,
        0.4239919185638428
      ],
      "type": "VEC2"
    },
    {
      "bufferView": 0,
      "byteOffset": 8568,
      "componentType": 5125,
      "count": 1740,
      "type": "SCALAR"
    },
    {
      "bufferView": 2,
      "byteOffset": 36936,
      "componentType": 5126,
      "count": 238,
      "max": [
        9.879233360290527,
        0.7138385772705078,
        6.458533763885498
      ],
      "min": [
        8.387274742126465,
        -0.2303617000579834,
        4.981205940246582
      ],
      "type": "VEC3"
    },
    {
      "bufferView": 2,
      "byteOffset": 39792,
      "componentType": 5126,
      "count": 238,
      "max": [
        0.9999680519104004,
        1.0,
        1.0
      ],
      "min": [
        -0.9999680519104004,
        -1.0,
        -1.0
      ],
      "type": "VEC3"
    },
    {
      "bufferView": 1,
      "byteOffset": 12312,
      "componentType": 5126,
      "count": 238,
      "max": [
        0.18673241138458252,
        0.43490123748779297
      ],
      "min": [
        0.01801212504506111,
        0.022534385323524475
      ],
      "type": "VEC2"
    },
    {
      "bufferView": 0,
      "byteOffset": 15528,
      "componentType": 5125,
      "count": 696,
      "type": "SCALAR"
    },
    {
      "bufferView": 2,
      "byteOffset": 42648,
      "componentType": 5126,
      "count": 246,
      "max": [
        10.211742401123047,
        0.9149773120880127,
        2.163027286529541
      ],
      "min": [
        7.463414192199707,
        -0.4218122065067291,
        -0.6390190720558167
      ],
      "type": "VEC3"
    },
    {
      "bufferView": 2,
      "byteOffset": 45600,
      "componentType": 5126,
      "count": 246,
      "max": [
        0.9998245239257813,
        0.9947065114974976,
        0.9998600482940674
      ],
      "min": [
        -0.9999141693115234,
        -0.9947065114974976,
        -0.9344778060913086
      ],
      "type": "VEC3"
    },
    {
      "bufferView": 1,
      "byteOffset": 14216,
      "componentType": 5126,
      "count": 246,
      "max": [
        0.9301460981369019,
        0.5309267640113831
      ],
      "min": [
        0.3813456892967224,
        0.029270581901073456
      ],
      "type": "VEC2"
    },
    {
      "bufferView": 0,
      "byteOffset": 18312,
      "componentType": 5125,
      "count": 768,
      "type": "SCALAR"
    }
  ],
  "asset": {
    "extras": {
      "author": "YD92 (https://sketchfab.com/YD92)",
      "license": "CC-BY-4.0 (http://creativecommons.org/licenses/by/4.0/)",
      "source": "https://sketchfab.com/3d-models/stylized-sword-5939148788fb4dffbbc9967f44892ec1",
      "title": "Stylized sword"
    },
    "generator": "Sketchfab-12.68.0",
    "version": "2.0"
  },
  "bufferViews": [
    {
      "buffer": 0,
      "byteLength": 21384,
	  "byteOffset": 0,
      "name": "floatBufferViews",
      "target": 34963
    },
    {
      "buffer": 0,
      "byteLength": 16184,
      "byteOffset": 21384,
      "byteStride": 8,
      "name": "floatBufferViews",
      "target": 34962
    },
    {
      "buffer": 0,
      "byteLength": 48552,
      "byteOffset": 37568,
      "byteStride": 12,
      "name": "floatBufferViews",
      "target": 34962
    }
  ],
  "buffers": [
    {
      "byteLength": 86120,
      "uri": "scene.bin"
    }
  ],
  "extensionsUsed": [
    "KHR_materials_unlit"
  ],
  "images": [
    {
      "uri": "textures/lambert3_baseColor.jpeg"
    }
  ],
  "materials": [
    {
      "doubleSided": true,
      "extensions": {
        "KHR_materials_unlit": {}
      },
      "name": "lambert3",
      "pbrMetallicRoughness": {
        "baseColorTexture": {
          "index": 0
        },
        "metallicFactor": 0.0
      }
    }
  ],
  "meshes": [
    {
      "name": "pasted__pCube29_lambert3_0",
      "primitives": [
        {
          "attributes": {
            "NORMAL": 1,
            "POSITION": 0,
            "TEXCOORD_0": 2
          },
          "indices": 3,
          "material": 0,
          "mode": 4
        }
      ]
    },
    {
      "name": "polySurface18_lambert3_0",
      "primitives": [
        {
          "attributes": {
            "NORMAL": 5,
            "POSITION": 4,
            "TEXCOORD_0": 6
          },
          "indices": 7,
          "material": 0,
          "mode": 4
        }
      ]
    },
    {
      "name": "pasted__pCube30_lambert3_0",
      "primitives": [
        {
          "attributes": {
            "NORMAL": 9,
            "POSITION": 8,
            "TEXCOORD_0": 10
          },
          "indices": 11,
          "material": 0,
          "mode": 4
        }
      ]
    },
    {
      "name": "pasted__pCylinder19_lambert3_0",
      "primitives": [
        {
          "attributes": {
            "NORMAL": 13,
            "POSITION": 12,
            "TEXCOORD_0": 14
          },
          "indices": 15,
          "material": 0,
          "mode": 4
        }
      ]
    },
    {
      "name": "pCylinder20_lambert3_0",
      "primitives": [
        {
          "attributes": {
            "NORMAL": 17,
            "POSITION": 16,
            "TEXCOORD_0": 18
          },
          "indices": 19,
          "material": 0,
          "mode": 4
        }
      ]
    },
    {
      "name": "polySurface19_lambert3_0",
      "primitives": [
        {
          "attributes": {
            "NORMAL": 21,
            "POSITION": 20,
            "TEXCOORD_0": 22
          },
          "indices": 23,
          "material": 0,
          "mode": 4
        }
      ]
    }
  ],
  "nodes": [
    {
      "children": [
        1
      ],
      "matrix": [
        1.0,
        0.0,
        0.0,
        0.0,
        0.0,
        2.220446049250313e-16,
        -1.0,
        0.0,
        0.0,
        1.0,
        2.220446049250313e-16,
        0.0,
        0.0,
        0.0,
        0.0,
        1.0
      ],
      "name": "Sketchfab_model"
    },
    {
      "children": [
        2
      ],
      "matrix": [
        1.0,
        0.0,
        0.0,
        0.0,
        0.0,
        0.0,
        1.0,
        0.0,
        0.0,
        -1.0,
        0.0,
        0.0,
        0.0,
        0.0,
        0.0,
        1.0
      ],
      "name": "939b1b93225a4d27bc1e9724604a8c0d.fbx"
    },
    {
      "children": [
        3,
        5,
        7,
        9,
        11,
        13
      ],
      "name": "RootNode"
    },
    {
      "children": [
        4
      ],
      "matrix": [
        1.0,
        0.0,
        0.0,
        0.0,
        0.0,
        1.0,
        0.0,
        0.0,
        0.0,
        0.0,
        1.0,
        0.0,
        20.460874557495117,
        0.0,
        0.0,
        1.0
      ],
      "name": "pasted__pCube29"
    },
    {
      "mesh": 0,
      "name": "pasted__pCube29_lambert3_0"
    },
    {
      "children": [
        6
      ],
      "matrix": [
        1.0,
        0.0,
        0.0,
        0.0,
        0.0,
        1.0,
        0.0,
        0.0,
        0.0,
        0.0,
        1.0,
        0.0,
        20.460874557495117,
        0.0,
        0.0,
        1.0
      ],
      "name": "polySurface18"
    },
    {
      "mesh": 1,
      "name": "polySurface18_lambert3_0"
    },
    {
      "children": [
        8
      ],
      "matrix": [
        1.0,
        0.0,
        0.0,
        0.0,
        0.0,
        1.0,
        0.0,
        0.0,
        0.0,
        0.0,
        1.0,
        0.0,
        20.460874557495117,
        0.0,
        0.0,
        1.0
      ],
      "name": "pasted__pCube30"
    },
    {
      "mesh": 2,
      "name": "pasted__pCube30_lambert3_0"
    },
    {
      "children": [
        10
      ],
      "matrix": [
        1.0,
        0.0,
        0.0,
        0.0,
        0.0,
        1.0,
        0.0,
        0.0,
        0.0,
        0.0,
        1.0,
        0.0,
        20.460874557495117,
        0.0,
        0.0,
        1.0
      ],
      "name": "pasted__pCylinder19"
    },
    {
      "mesh": 3,
      "name": "pasted__pCylinder19_lambert3_0"
    },
    {
      "children": [
        12
      ],
      "matrix": [
        1.0,
        0.0,
        0.0,
        0.0,
        0.0,
        1.0,
        0.0,
        0.0,
        0.0,
        0.0,
        1.0,
        0.0,
        20.460874557495117,
        0.0,
        0.0,
        1.0
      ],
      "name": "pCylinder20"
    },
    {
      "mesh": 4,
      "name": "pCylinder20_lambert3_0"
    },
    {
      "children": [
        14
      ],
      "matrix": [
        1.0,
        0.0,
        0.0,
        0.0,
        0.0,
        1.0,
        0.0,
        0.0,
        0.0,
        0.0,
        1.0,
        0.0,
        20.460874557495117,
        0.0,
        0.0,
        1.0
      ],
      "name": "polySurface19"
    },
    {
      "mesh": 5,
      "name": "polySurface19_lambert3_0"
    }
  ],
  "samplers": [
    {
      "magFilter": 9729,
      "minFilter": 9987,
      "wrapS": 10497,
      "wrapT": 10497
    }
  ],
  "scene": 0,
  "scenes": [
    {
      "name": "Sketchfab_Scene",
      "nodes": [
        0
      ]
    }
  ],
  "textures": [
    {
      "sampler": 0,
      "source": 0
    }
  ]
}
